<svg width="100" height="100" viewBox="0 0 100 100" fill="none" xmlns="http://www.w3.org/2000/svg">
<path d="M27.7778 0C12.4611 0 0 12.4611 0 27.7778V72.2222C0 87.5389 12.4611 100 27.7778 100H72.2222C87.5389 100 100 87.5389 100 72.2222V27.7778C100 12.4611 87.5389 0 72.2222 0H27.7778ZM27.7778 11.1111H72.2222C81.4111 11.1111 88.8889 18.5889 88.8889 27.7778V72.2222C88.8889 81.4111 81.4111 88.8889 72.2222 88.8889H27.7778C18.5889 88.8889 11.1111 81.4111 11.1111 72.2222V27.7778C11.1111 18.5889 18.5889 11.1111 27.7778 11.1111ZM77.7778 16.6667C76.3043 16.6667 74.8913 17.252 73.8494 18.2939C72.8075 19.3357 72.2222 20.7488 72.2222 22.2222C72.2222 23.6956 72.8075 25.1087 73.8494 26.1506C74.8913 27.1925 76.3043 27.7778 77.7778 27.7778C79.2512 27.7778 80.6643 27.1925 81.7061 26.1506C82.748 25.1087 83.3333 23.6956 83.3333 22.2222C83.3333 20.7488 82.748 19.3357 81.7061 18.2939C80.6643 17.252 79.2512 16.6667 77.7778 16.6667ZM50 22.2222C34.6833 22.2222 22.2222 34.6833 22.2222 50C22.2222 65.3167 34.6833 77.7778 50 77.7778C65.3167 77.7778 77.7778 65.3167 77.7778 50C77.7778 34.6833 65.3167 22.2222 50 22.2222ZM50 33.3333C59.1889 33.3333 66.6667 40.8111 66.6667 50C66.6667 59.1889 59.1889 66.6667 50 66.6667C40.8111 66.6667 33.3333 59.1889 33.3333 50C33.3333 40.8111 40.8111 33.3333 50 33.3333Z" fill="#9096A3"/>
</svg>
