<svg width="125" height="100" viewBox="0 0 125 100" fill="none" xmlns="http://www.w3.org/2000/svg">
<path d="M122.388 13.6625C120.95 8.2875 116.712 4.05 111.337 2.6125C101.587 1.30385e-06 62.5 0 62.5 0C62.5 0 23.4125 1.30385e-06 13.6625 2.6125C8.2875 4.05 4.05 8.2875 2.6125 13.6625C-1.86265e-07 23.4125 0 50 0 50C0 50 -1.86265e-07 76.5875 2.6125 86.3375C4.05 91.7125 8.2875 95.95 13.6625 97.3875C23.4125 100 62.5 100 62.5 100C62.5 100 101.587 100 111.337 97.3875C116.719 95.95 120.95 91.7125 122.388 86.3375C125 76.5875 125 50 125 50C125 50 125 23.4125 122.388 13.6625ZM50 66.2375V33.7625C50 31.3563 52.6062 29.8562 54.6875 31.0562L82.8125 47.2938C84.8938 48.4938 84.8938 51.5062 82.8125 52.7062L54.6875 68.9438C52.6062 70.15 50 68.6437 50 66.2375Z" fill="#9096A3"/>
</svg>
