<svg width="124" height="100" viewBox="0 0 124 100" fill="none" xmlns="http://www.w3.org/2000/svg">
<path d="M123.913 11.8368C119.352 13.8483 114.453 15.2019 109.311 15.8124C114.563 12.6887 118.59 7.74291 120.487 1.84581C115.578 4.73757 110.135 6.83894 104.34 7.97482C99.7033 3.06687 93.098 0 85.7874 0C71.7477 0 60.3672 11.3067 60.3672 25.2449C60.3672 27.2232 60.5959 29.1542 61.0248 30.9953C39.8985 29.9446 21.1693 19.8921 8.62592 4.61451C6.44323 8.34398 5.18985 12.6793 5.18985 17.3127C5.18985 26.0684 9.67438 33.7972 16.4941 38.3217C12.3289 38.1892 8.4067 37.0533 4.98016 35.1649C4.98016 35.2738 4.98016 35.3732 4.98016 35.482C4.98016 47.7164 13.7395 57.9204 25.3726 60.2347C23.2423 60.8122 20.9929 61.1198 18.672 61.1198C17.0374 61.1198 15.4409 60.9589 13.892 60.6702C17.1279 70.699 26.5164 78.0018 37.6395 78.2053C28.9421 84.978 17.981 89.0151 6.06674 89.0151C4.01749 89.0151 1.99206 88.8968 0 88.6601C11.2518 95.8209 24.6101 100 38.9692 100C85.7302 100 111.293 61.5315 111.293 28.1698C111.293 27.0765 111.27 25.988 111.222 24.9042C116.193 21.3403 120.506 16.8962 123.913 11.8368Z" fill="#9096A3"/>
</svg>
