<svg width="57" height="100" viewBox="0 0 57 100" fill="none" xmlns="http://www.w3.org/2000/svg">
<path d="M43.4783 19.5652H54.3478C55.5478 19.5652 56.5217 18.5913 56.5217 17.3913V2.74565C56.5217 1.60652 55.6457 0.658696 54.5109 0.578261C51.0522 0.332609 44.2957 0 39.437 0C26.087 0 17.3913 8 17.3913 22.5391V36.9565H2.17391C0.973913 36.9565 0 37.9304 0 39.1304V54.3478C0 55.5478 0.973913 56.5217 2.17391 56.5217H17.3913V97.8261C17.3913 99.0261 18.3652 100 19.5652 100H34.7826C35.9826 100 36.9565 99.0261 36.9565 97.8261V56.5217H52.6565C53.7652 56.5217 54.6957 55.6891 54.8174 54.587L56.5087 39.3696C56.6522 38.0826 55.6435 36.9565 54.3478 36.9565H36.9565V26.087C36.9565 22.4848 39.8761 19.5652 43.4783 19.5652Z" fill="#9096A3"/>
</svg>
